<?xml version="1.0" encoding="UTF-8"?>
<svg width="700pt" height="700pt" version="1.1" viewBox="0 0 700 700" xmlns="http://www.w3.org/2000/svg" xmlns:xlink="http://www.w3.org/1999/xlink">
 <defs>
  <symbol id="p" overflow="visible">
   <path d="m32.266-1.9219c-1.668 0.85547-3.4023 1.5-5.2031 1.9375-1.8047 0.44531-3.6836 0.67188-5.6406 0.67188-5.8438 0-10.48-1.6328-13.906-4.9062-3.418-3.2695-5.125-7.7031-5.125-13.297 0-5.6133 1.707-10.051 5.125-13.312 3.4258-3.2695 8.0625-4.9062 13.906-4.9062 1.957 0 3.8359 0.21875 5.6406 0.65625 1.8008 0.4375 3.5352 1.0898 5.2031 1.9531v7.2656c-1.6797-1.1445-3.3359-1.9844-4.9688-2.5156-1.625-0.53906-3.3398-0.8125-5.1406-0.8125-3.2305 0-5.7734 1.0391-7.625 3.1094-1.8555 2.0742-2.7812 4.9297-2.7812 8.5625 0 3.6172 0.92578 6.4609 2.7812 8.5312 1.8516 2.0742 4.3945 3.1094 7.625 3.1094 1.8008 0 3.5156-0.26562 5.1406-0.79688 1.6328-0.53906 3.2891-1.3789 4.9688-2.5156z"/>
  </symbol>
  <symbol id="i" overflow="visible">
   <path d="m23.609-19.156c-0.74219-0.35156-1.4766-0.60938-2.2031-0.76562-0.73047-0.16406-1.4648-0.25-2.2031-0.25-2.1562 0-3.8203 0.69531-4.9844 2.0781-1.168 1.3867-1.75 3.3711-1.75 5.9531v12.141h-8.4219v-26.328h8.4219v4.3125c1.0703-1.7188 2.3125-2.9727 3.7188-3.7656 1.4062-0.78906 3.0859-1.1875 5.0469-1.1875 0.28125 0 0.58203 0.011719 0.90625 0.03125 0.33203 0.023438 0.8125 0.074219 1.4375 0.15625z"/>
  </symbol>
  <symbol id="b" overflow="visible">
   <path d="m30.328-13.234v2.3906h-19.672c0.19531 1.9805 0.90625 3.4648 2.125 4.4531 1.2266 0.98047 2.9414 1.4688 5.1406 1.4688 1.7695 0 3.582-0.25781 5.4375-0.78125 1.8516-0.51953 3.7656-1.3164 5.7344-2.3906v6.5c-2 0.75-3.9961 1.3203-5.9844 1.7031-1.9922 0.38281-3.9805 0.57812-5.9688 0.57812-4.7617 0-8.4648-1.207-11.109-3.625-2.6484-2.4258-3.9688-5.8281-3.9688-10.203 0-4.3008 1.2969-7.6797 3.8906-10.141 2.6016-2.457 6.1758-3.6875 10.719-3.6875 4.1328 0 7.4414 1.2461 9.9219 3.7344 2.4883 2.4922 3.7344 5.8242 3.7344 10zm-8.6406-2.7969c0-1.6016-0.46875-2.8945-1.4062-3.875-0.9375-0.97656-2.1562-1.4688-3.6562-1.4688-1.6367 0-2.9648 0.46094-3.9844 1.375-1.0117 0.91797-1.6406 2.2422-1.8906 3.9688z"/>
  </symbol>
  <symbol id="a" overflow="visible">
   <path d="m15.844-11.844c-1.75 0-3.0703 0.29688-3.9531 0.89062-0.88672 0.59375-1.3281 1.4688-1.3281 2.625 0 1.0742 0.35156 1.9141 1.0625 2.5156 0.71875 0.59375 1.7109 0.89062 2.9844 0.89062 1.582 0 2.9102-0.56641 3.9844-1.7031 1.082-1.1328 1.625-2.5547 1.625-4.2656v-0.95312zm12.859-3.1875v15.031h-8.4844v-3.9062c-1.125 1.6055-2.3984 2.7734-3.8125 3.5-1.4062 0.72656-3.1211 1.0938-5.1406 1.0938-2.7305 0-4.9492-0.79688-6.6562-2.3906-1.6992-1.5938-2.5469-3.6602-2.5469-6.2031 0-3.082 1.0625-5.3438 3.1875-6.7812 2.125-1.4453 5.4609-2.1719 10.016-2.1719h4.9531v-0.65625c0-1.332-0.52734-2.3047-1.5781-2.9219-1.043-0.625-2.6797-0.9375-4.9062-0.9375-1.8047 0-3.4805 0.18359-5.0312 0.54688-1.5547 0.35547-2.9961 0.89844-4.3281 1.625v-6.4219c1.8008-0.4375 3.6094-0.76953 5.4219-1 1.8203-0.22656 3.6445-0.34375 5.4688-0.34375 4.75 0 8.1758 0.9375 10.281 2.8125 2.1016 1.875 3.1562 4.918 3.1562 9.125z"/>
  </symbol>
  <symbol id="h" overflow="visible">
   <path d="m13.234-33.812v7.4844h8.6875v6.0156h-8.6875v11.172c0 1.2188 0.24219 2.0469 0.73438 2.4844 0.48828 0.42969 1.4531 0.64062 2.8906 0.64062h4.3281v6.0156h-7.2188c-3.3242 0-5.6797-0.69141-7.0625-2.0781-1.3867-1.3828-2.0781-3.7383-2.0781-7.0625v-11.172h-4.1875v-6.0156h4.1875v-7.4844z"/>
  </symbol>
  <symbol id="g" overflow="visible">
   <path d="m21.969-22.484v-14.109h8.4531v36.594h-8.4531v-3.8125c-1.168 1.5547-2.4492 2.6953-3.8438 3.4219-1.3984 0.71875-3.0117 1.0781-4.8438 1.0781-3.2422 0-5.9062-1.2852-8-3.8594-2.0859-2.582-3.125-5.9062-3.125-9.9688s1.0391-7.3789 3.125-9.9531c2.0938-2.582 4.7578-3.875 8-3.875 1.8203 0 3.4297 0.36719 4.8281 1.0938 1.4062 0.73047 2.6914 1.8594 3.8594 3.3906zm-5.5625 17.047c1.8008 0 3.1758-0.65625 4.125-1.9688 0.95703-1.3125 1.4375-3.2227 1.4375-5.7344 0-2.5078-0.48047-4.4219-1.4375-5.7344-0.94922-1.3203-2.3242-1.9844-4.125-1.9844-1.7812 0-3.1484 0.66406-4.0938 1.9844-0.94922 1.3125-1.4219 3.2266-1.4219 5.7344 0 2.5117 0.47266 4.4219 1.4219 5.7344 0.94531 1.3125 2.3125 1.9688 4.0938 1.9688z"/>
  </symbol>
  <symbol id="f" overflow="visible">
   <path d="m18.062-5.4375c1.8008 0 3.1758-0.65625 4.125-1.9688 0.94531-1.3125 1.4219-3.2227 1.4219-5.7344 0-2.5078-0.47656-4.4219-1.4219-5.7344-0.94922-1.3203-2.3242-1.9844-4.125-1.9844-1.8047 0-3.1875 0.66406-4.1562 1.9844-0.96094 1.3242-1.4375 3.2344-1.4375 5.7344 0 2.4922 0.47656 4.3984 1.4375 5.7188 0.96875 1.3242 2.3516 1.9844 4.1562 1.9844zm-5.5938-17.047c1.1562-1.5312 2.4375-2.6602 3.8438-3.3906 1.4141-0.72656 3.0391-1.0938 4.875-1.0938 3.2383 0 5.8984 1.293 7.9844 3.875 2.0938 2.5742 3.1406 5.8906 3.1406 9.9531s-1.0469 7.3867-3.1406 9.9688c-2.0859 2.5742-4.7461 3.8594-7.9844 3.8594-1.8359 0-3.4609-0.36719-4.875-1.0938-1.4062-0.72656-2.6875-1.8633-3.8438-3.4062v3.8125h-8.4219v-36.594h8.4219z"/>
  </symbol>
  <symbol id="e" overflow="visible">
   <path d="m0.59375-26.328h8.4062l7.0781 17.859 6.0312-17.859h8.4062l-11.062 28.828c-1.1172 2.9258-2.418 4.9727-3.9062 6.1406-1.4805 1.1641-3.4336 1.75-5.8594 1.75h-4.8594v-5.5156h2.625c1.4258 0 2.4609-0.23047 3.1094-0.6875 0.65625-0.46094 1.1641-1.2773 1.5312-2.4531l0.23438-0.71875z"/>
  </symbol>
  <symbol id="d" overflow="visible">
   <path d="m28.844-34v7.4219c-1.9297-0.85156-3.8086-1.5-5.6406-1.9375-1.8359-0.44531-3.5625-0.67188-5.1875-0.67188-2.168 0-3.7734 0.30469-4.8125 0.90625-1.0312 0.59375-1.5469 1.5156-1.5469 2.7656 0 0.9375 0.34766 1.6719 1.0469 2.2031 0.69531 0.52344 1.9609 0.96875 3.7969 1.3438l3.8594 0.78125c3.9062 0.78125 6.6797 1.9766 8.3281 3.5781 1.6445 1.5938 2.4688 3.8672 2.4688 6.8125 0 3.875-1.1523 6.7617-3.4531 8.6562-2.293 1.8867-5.7969 2.8281-10.516 2.8281-2.2305 0-4.4648-0.21484-6.7031-0.64062-2.2422-0.42578-4.4805-1.0508-6.7188-1.875v-7.6406c2.2383 1.1875 4.4062 2.0859 6.5 2.6875 2.0938 0.60547 4.1094 0.90625 6.0469 0.90625 1.9766 0 3.4922-0.32812 4.5469-0.98438 1.0508-0.66406 1.5781-1.6094 1.5781-2.8281 0-1.0938-0.35938-1.9375-1.0781-2.5312-0.71094-0.60156-2.1328-1.1406-4.2656-1.6094l-3.5-0.78125c-3.5117-0.75-6.0781-1.9453-7.7031-3.5938-1.625-1.6445-2.4375-3.8633-2.4375-6.6562 0-3.4883 1.1289-6.1719 3.3906-8.0469 2.2578-1.8828 5.5039-2.8281 9.7344-2.8281 1.9258 0 3.9062 0.14844 5.9375 0.4375 2.0391 0.28125 4.1484 0.71484 6.3281 1.2969z"/>
  </symbol>
  <symbol id="o" overflow="visible">
   <path d="m28.453-21.969c1.0625-1.625 2.3281-2.8633 3.7969-3.7188 1.4688-0.85156 3.0781-1.2812 4.8281-1.2812 3.0312 0 5.3359 0.93359 6.9219 2.7969 1.582 1.8672 2.375 4.5781 2.375 8.1406v16.031h-8.4688v-13.734c0.007812-0.19531 0.019531-0.40625 0.03125-0.625 0.007812-0.22656 0.015625-0.54688 0.015625-0.95312 0-1.8633-0.27734-3.2109-0.82812-4.0469-0.54297-0.84375-1.4297-1.2656-2.6562-1.2656-1.5938 0-2.8281 0.66406-3.7031 1.9844-0.86719 1.3125-1.3125 3.2148-1.3438 5.7031v12.938h-8.4688v-13.734c0-2.9141-0.25-4.7891-0.75-5.625-0.5-0.84375-1.3984-1.2656-2.6875-1.2656-1.6172 0-2.8594 0.66797-3.7344 2-0.875 1.3242-1.3125 3.2148-1.3125 5.6719v12.953h-8.4688v-26.328h8.4688v3.8438c1.0312-1.4883 2.2109-2.6094 3.5469-3.3594 1.3438-0.75 2.8203-1.125 4.4375-1.125 1.8203 0 3.4297 0.4375 4.8281 1.3125 1.3945 0.875 2.4531 2.1055 3.1719 3.6875z"/>
  </symbol>
  <symbol id="c" overflow="visible">
   <path d="m24.625-25.516v6.4062c-1.8047-0.75781-3.543-1.3281-5.2188-1.7031-1.6797-0.375-3.2617-0.5625-4.75-0.5625-1.6055 0-2.7969 0.20312-3.5781 0.60938-0.77344 0.39844-1.1562 1.0117-1.1562 1.8438 0 0.66797 0.28906 1.1836 0.875 1.5469 0.59375 0.36719 1.6484 0.63281 3.1719 0.79688l1.4844 0.21875c4.3125 0.54297 7.207 1.4453 8.6875 2.7031 1.4883 1.25 2.2344 3.2148 2.2344 5.8906 0 2.8125-1.0391 4.9297-3.1094 6.3438-2.0625 1.4062-5.1484 2.1094-9.25 2.1094-1.7422 0-3.543-0.14062-5.4062-0.42188-1.8555-0.26953-3.7617-0.67969-5.7188-1.2344v-6.3906c1.6758 0.8125 3.3945 1.4219 5.1562 1.8281 1.7695 0.40625 3.5625 0.60938 5.375 0.60938 1.6445 0 2.8828-0.22266 3.7188-0.67188 0.83203-0.45703 1.25-1.1328 1.25-2.0312 0-0.75-0.28906-1.3047-0.85938-1.6719-0.57422-0.375-1.7148-0.66016-3.4219-0.85938l-1.4844-0.1875c-3.75-0.46875-6.375-1.3359-7.875-2.6094-1.5-1.2695-2.25-3.1953-2.25-5.7812 0-2.7891 0.95312-4.8594 2.8594-6.2031 1.9141-1.3516 4.8477-2.0312 8.7969-2.0312 1.5508 0 3.1797 0.12109 4.8906 0.35938 1.707 0.23047 3.5664 0.59375 5.5781 1.0938z"/>
  </symbol>
  <symbol id="n" overflow="visible">
   <path d="m30.516-16.031v16.031h-8.4531v-12.234c0-2.3008-0.054688-3.8789-0.15625-4.7344-0.10547-0.86328-0.28125-1.5-0.53125-1.9062-0.33594-0.55078-0.78125-0.97656-1.3438-1.2812-0.5625-0.3125-1.2031-0.46875-1.9219-0.46875-1.7617 0-3.1406 0.68359-4.1406 2.0469-1 1.3555-1.5 3.2305-1.5 5.625v12.953h-8.4219v-36.594h8.4219v14.109c1.2578-1.5312 2.6016-2.6602 4.0312-3.3906 1.4258-0.72656 3.0039-1.0938 4.7344-1.0938 3.0391 0 5.3477 0.93359 6.9219 2.7969 1.5703 1.8672 2.3594 4.5781 2.3594 8.1406z"/>
  </symbol>
  <symbol id="m" overflow="visible">
   <path d="m4.0469-26.328h8.4219v26.328h-8.4219zm0-10.266h8.4219v6.875h-8.4219z"/>
  </symbol>
  <symbol id="l" overflow="visible">
   <path d="m25.328-25.516v6.875c-1.1484-0.78906-2.2969-1.375-3.4531-1.75-1.1484-0.375-2.3398-0.5625-3.5781-0.5625-2.3555 0-4.1875 0.6875-5.5 2.0625-1.3047 1.375-1.9531 3.293-1.9531 5.75 0 2.4609 0.64844 4.375 1.9531 5.75 1.3125 1.3672 3.1445 2.0469 5.5 2.0469 1.3125 0 2.5547-0.19141 3.7344-0.57812 1.1875-0.39453 2.2852-0.97656 3.2969-1.75v6.8906c-1.3242 0.49219-2.6641 0.85156-4.0156 1.0938-1.3555 0.25-2.7148 0.375-4.0781 0.375-4.75 0-8.4688-1.2188-11.156-3.6562-2.6797-2.4375-4.0156-5.8281-4.0156-10.172s1.3359-7.7344 4.0156-10.172c2.6875-2.4375 6.4062-3.6562 11.156-3.6562 1.3828 0 2.7422 0.125 4.0781 0.375 1.3438 0.24219 2.6797 0.60156 4.0156 1.0781z"/>
  </symbol>
  <symbol id="k" overflow="visible">
   <path d="m16.578-20.953c-1.8672 0-3.2891 0.67188-4.2656 2.0156-0.98047 1.3359-1.4688 3.2656-1.4688 5.7969 0 2.5234 0.48828 4.4531 1.4688 5.7969 0.97656 1.3359 2.3984 2 4.2656 2 1.832 0 3.2344-0.66406 4.2031-2 0.97656-1.3438 1.4688-3.2734 1.4688-5.7969 0-2.5312-0.49219-4.4609-1.4688-5.7969-0.96875-1.3438-2.3711-2.0156-4.2031-2.0156zm0-6.0156c4.5312 0 8.0664 1.2266 10.609 3.6719 2.5508 2.4375 3.8281 5.8242 3.8281 10.156 0 4.3242-1.2773 7.7109-3.8281 10.156-2.543 2.4492-6.0781 3.6719-10.609 3.6719-4.543 0-8.1016-1.2227-10.672-3.6719-2.5625-2.4453-3.8438-5.832-3.8438-10.156 0-4.332 1.2812-7.7188 3.8438-10.156 2.5703-2.4453 6.1289-3.6719 10.672-3.6719z"/>
  </symbol>
  <symbol id="j" overflow="visible">
   <path d="m30.516-16.031v16.031h-8.4531v-12.281c0-2.2695-0.054688-3.832-0.15625-4.6875-0.10547-0.86328-0.28125-1.5-0.53125-1.9062-0.33594-0.55078-0.78125-0.97656-1.3438-1.2812-0.5625-0.3125-1.2031-0.46875-1.9219-0.46875-1.7617 0-3.1406 0.68359-4.1406 2.0469-1 1.3555-1.5 3.2305-1.5 5.625v12.953h-8.4219v-26.328h8.4219v3.8438c1.2578-1.5312 2.6016-2.6602 4.0312-3.3906 1.4258-0.72656 3.0039-1.0938 4.7344-1.0938 3.0391 0 5.3477 0.93359 6.9219 2.7969 1.5703 1.8672 2.3594 4.5781 2.3594 8.1406z"/>
  </symbol>
 </defs>
 <g>
  <path d="m636.93 271.71c-5.875-24.852-23.598-42.863-42.285-42.863-2.2148 0-4.5273 0.28906-6.7422 0.76953-1.8281 0.38672-3.5625 1.0586-5.2031 1.8281-21.383-52.398-54.035-87.074-88.133-110 1.7344-36.988 22.926-59.234 59.043-62.031 4.4297 16.375 19.266 28.605 37.082 28.605 21.285 0 38.527-17.242 38.527-38.527s-17.242-38.527-38.527-38.527c-18.012 0-33.039 12.523-37.277 29.184-43.055 2.9844-71.371 28.895-77.152 70.121-59.621-32.941-118.09-33.617-122.81-33.617-4.7188 0-67.52 0.86719-129.45 37.66-5.1055-45.27-41.707-81.102-87.266-85.051-4.0352-16.746-19.156-29.27-37.168-29.27-21.285 0-38.527 17.242-38.527 38.527s17.242 38.527 38.527 38.527c17.723 0 32.555-12.137 36.988-28.414 38.719 4.0469 68.961 36.793 68.961 76.574 0 0.48047 0.19141 0.86719 0.28906 1.3477-43.441 31.496-83.414 82.738-98.918 166.73-0.19141 0.76953-0.28906 1.6367-0.38672 2.4062-2.4062-0.67578-4.9141-1.1562-7.5117-1.1562-21.285 0-37.949 22.926-37.949 52.207s16.664 52.203 37.949 52.203c3.8516 0 7.707-0.96484 11.367-2.6016 6.7422 25.719 17.914 49.895 33.328 71.082 30.629 42.188 91.023 92.562 204.77 92.562h10.691c113.75 0 174.14-50.277 204.77-92.562 27.738-38.238 41.898-86.109 40.742-135.62 0.28906 0 0.67578 0.097656 0.96484 0.097656 2.2148 0 4.3359-0.28906 6.4531-0.76953 20.707-4.8164 31.688-31.016 24.848-59.43zm-46.137-241.47c10.594 0 19.266 8.668 19.266 19.266 0 10.594-8.668 19.266-19.266 19.266-10.594 0-19.266-8.668-19.266-19.266 0.003906-10.598 8.6719-19.266 19.266-19.266zm-491.23 27.547c-10.594 0-19.266-8.6719-19.266-19.266s8.668-19.266 19.266-19.266c10.594 0 19.266 8.668 19.266 19.266-0.003907 10.594-8.6719 19.266-19.266 19.266zm6.4531 319.11c-2.0234 1.6367-4.4297 2.8906-7.0312 2.8906-8.8633-0.097656-18.688-13.582-18.688-33.039s9.8242-32.941 18.688-32.941c1.6367 0 3.2734 0.48047 4.8164 1.3477-0.48047 5.1055-0.76953 10.305-0.96484 15.41v0.96484c-0.097656 4.3359-0.097656 8.5742 0 12.809 0 1.3477 0.097656 2.6016 0.097656 3.9492 0.19141 3.4688 0.38672 6.9336 0.67578 10.402 0.097656 1.3477 0.19141 2.6953 0.38672 4.0469 0.48047 4.2383 1.0586 8.3789 1.7344 12.617 0.1875 0.38672 0.1875 0.96484 0.28516 1.543zm442.3 79.27c-40.742 56.152-104.31 84.566-189.17 84.566h-10.691c-84.855 0-148.43-28.414-189.17-84.566-19.84-27.355-32.074-60.297-35.926-95.066-0.097656-0.76953-0.097656-1.543-0.19141-2.3125-0.57812-5.4883-0.86719-10.98-0.96484-16.566-0.097656-2.4062 0-4.8164 0-7.3203 0-3.9492 0.19141-7.8008 0.48047-11.75 0.19141-2.793 0.38672-5.6836 0.67578-8.4766 0.57812-5.9727 1.3477-12.039 2.4062-18.012 36.699-198.42 220.09-200.73 228.18-200.73 7.0312 0 157.96 1.9258 213.73 149.49l1.7344 5.0078c2.5039 6.9336 4.625 13.965 6.5508 20.996 0.28906 1.0586 0.57812 2.0234 0.86719 3.082 1.9258 7.2227 3.5625 14.641 5.0078 22.152 1.1562 6.3555 1.9258 12.715 2.6016 19.07 0.097656 1.2539 0.28906 2.4062 0.38672 3.6602 3.9453 49.801-8.8633 98.637-36.508 136.78zm59.332-143.61c-1.3477 0.28906-2.6953 0.28906-4.2383 0 0-0.38672-0.097656-0.67578-0.19141-1.0586-0.67578-6.0664-1.4453-12.137-2.6016-18.203v-0.097657c0-0.097656-0.097656-0.19141-0.097656-0.28906-1.3477-7.418-2.9844-14.449-4.7188-21.383-0.097657-0.38672-0.19141-0.86719-0.38672-1.2539-1.8281-7.1289-3.8516-13.965-6.0664-20.516 0.96484-0.67578 1.9258-1.1562 2.9844-1.3477 8.7656-2.0234 21.191 8.5742 25.719 27.738 4.625 18.883-1.8281 34.387-10.402 36.41z"/>
  <path d="m398.16 222.88c0 15.957-19.406 28.895-43.344 28.895s-43.344-12.938-43.344-28.895c0-15.957 19.406-28.895 43.344-28.895s43.344 12.938 43.344 28.895"/>
  <path d="m272.95 280.68c0 15.957-19.406 28.895-43.344 28.895s-43.344-12.938-43.344-28.895c0-15.961 19.406-28.898 43.344-28.898s43.344 12.938 43.344 28.898"/>
  <path d="m480.03 213.25c-15.988 0-30.82 3.8516-43.344 10.305v-0.67578c0-37.18-36.699-67.422-81.871-67.422s-81.871 30.246-81.871 67.422v0.67578c-12.617-6.5508-27.449-10.305-43.344-10.305-45.172 0-81.871 30.246-81.871 67.422 0 37.18 36.699 67.422 81.871 67.422 45.172 0 81.871-30.246 81.871-67.422v-0.67578c12.617 6.5508 27.449 10.305 43.344 10.305 15.895 0 30.82-3.8516 43.344-10.305v0.67578c0 37.18 36.699 67.422 81.871 67.422s81.871-30.246 81.871-67.422-36.699-67.422-81.871-67.422zm-250.43 115.58c-34.48 0-62.609-21.574-62.609-48.16s28.125-48.16 62.609-48.16c34.48 0 62.609 21.574 62.609 48.16-0.003907 26.586-28.129 48.16-62.609 48.16zm62.605-105.95c0-26.586 28.125-48.16 62.609-48.16 34.48 0 62.609 21.574 62.609 48.16 0 26.586-28.125 48.16-62.609 48.16s-62.609-21.574-62.609-48.16zm187.82 105.95c-34.48 0-62.609-21.574-62.609-48.16s28.125-48.16 62.609-48.16c34.48 0 62.609 21.574 62.609 48.16-0.003906 26.586-28.129 48.16-62.609 48.16z"/>
  <path d="m523.38 280.68c0 15.957-19.406 28.895-43.344 28.895s-43.344-12.938-43.344-28.895c0-15.961 19.406-28.898 43.344-28.898s43.344 12.938 43.344 28.898"/>
  <path d="m471.36 369.29c-4.2383-3.1797-10.305-2.3125-13.484 1.9258-3.1797 4.2383-2.3125 10.305 1.9258 13.484l13.582 10.211c-12.234 15.41-51.531 59.523-104.99 67.52-33.809 5.1055-67.809-5.2969-101.04-30.629l11.367-8.4766c4.2383-3.1797 5.1055-9.2461 1.9258-13.484-3.1797-4.2383-9.2461-5.1055-13.484-1.9258l-38.527 28.895c-4.2383 3.1797-5.1055 9.2461-1.9258 13.484 1.9258 2.5039 4.8164 3.8516 7.707 3.8516 2.0234 0 4.0469-0.67578 5.7773-1.9258l11.367-8.4766c0.28906 0.38672 0.48047 0.76953 0.96484 1.0586 32.172 25.43 65.402 38.238 99.016 38.238 6.6445 0 13.293-0.48047 19.938-1.543 61.164-9.2461 104.02-57.793 117.41-74.938l9.5352 7.1289c1.7344 1.2539 3.7578 1.9258 5.7773 1.9258 2.8906 0 5.7773-1.3477 7.707-3.8516 3.1797-4.2383 2.3125-10.305-1.9258-13.484z"/>
  <use x="61.042969" y="704.480469" xlink:href="#p"/>
  <use x="96.386719" y="704.480469" xlink:href="#i"/>
  <use x="120.136719" y="704.480469" xlink:href="#b"/>
  <use x="152.800781" y="704.480469" xlink:href="#a"/>
  <use x="185.296875" y="704.480469" xlink:href="#h"/>
  <use x="208.320312" y="704.480469" xlink:href="#b"/>
  <use x="240.984375" y="704.480469" xlink:href="#g"/>
  <use x="292.222656" y="704.480469" xlink:href="#f"/>
  <use x="326.695312" y="704.480469" xlink:href="#e"/>
  <use x="374.855469" y="704.480469" xlink:href="#d"/>
  <use x="409.542969" y="704.480469" xlink:href="#o"/>
  <use x="459.722656" y="704.480469" xlink:href="#a"/>
  <use x="492.222656" y="704.480469" xlink:href="#c"/>
  <use x="520.886719" y="704.480469" xlink:href="#n"/>
  <use x="555.171875" y="704.480469" xlink:href="#m"/>
  <use x="571.679688" y="704.480469" xlink:href="#l"/>
  <use x="600.226562" y="704.480469" xlink:href="#k"/>
  <use x="633.3125" y="704.480469" xlink:href="#j"/>
  <use x="667.597656" y="704.480469" xlink:href="#c"/>
 </g>
</svg>
