<?xml version="1.0" encoding="UTF-8"?>
<svg width="100pt" height="100pt" version="1.1" viewBox="0 0 100 100" xmlns="http://www.w3.org/2000/svg">
 <path transform="matrix(1.25 0 0 1.25 0 .00012812)" d="m64.537 30.834c0-0.065625 3.4969-6.6812 4.15-12.203 0.25-2.1062 0.175-4.4969-0.24375-5.9781-0.52812-1.8625-1.0969-2.6844-1.0969-2.6844s-1.9219-0.65312-3.9062-0.36562c-1.475 0.2125-3.1594 1.2656-4.7594 2.3187-3.1531 2.075-5.6125 7.3219-5.6125 7.3219s1.0562-2.1344 1.1781-2.1344c0.062499 0-8.9219-1.6937-17.775-0.79375-8.4969 0.86562-17.997 4.475-17.997 4.475l2.8687 2.9687s-5.3875-6.2094-9.0281-5.7344c-0.8 0.10312-2.7375-0.01875-4.2719 0.60938-1.6156 0.6625-2.8062 2.075-2.8062 2.075s0.14375 1.7156 0.4875 3.2937c0.35312 1.6219 0.90625 3.1125 1.0969 3.6594 1.6781 4.7906 5.4906 9.1531 5.4906 9.1531s-1.7906-2.1156-2.4594-3.2125c0 0-1.0531 7.6-3.1531 13.219-1.6219 4.3437-4.7594 8.2969-4.7594 8.2969s3.7875 2.3031 5.3687 5.0031c1.325 2.2625 0.4875 5.0031 0.4875 5.0031s7.2844-0.99062 14.644 0c4.8344 0.65 9.8531 3.0312 12.325 4.0281 9.5437 3.8406 13.828 2.3437 13.828 2.3437s3.4937-0.7125 6.55-3.2c2.1437-1.7437 3.2281-5.1969 6.2219-7.2 3.375-2.2562 8.4594-3.4031 11.103-5.7344 3.1844-2.8062 4.8812-9.5187 4.8812-9.5187s-1.4562-1.2844-1.9531-2.9281c-0.47812-1.5875 0-3.5375 0-3.5375s-2.7719-1.7375-5.125-4.15c-2.5219-2.5844-4.6375-5.8562-4.6375-5.8562s-1.0969 1.5875-1.0969 1.4656zm-55.397 33.15s0.4625-2.2719-1.0562-5.0437c-0.76875-1.4031-4.0687-4.3125-4.0687-4.3125s4.5156-9.0281 4.5156-9.0281 7.2-5.3219 15.131-8.2969c7.1625-2.6844 15.131-3.05 15.131-3.05s1.025 3.4937 1.3437 7.0781c0.2125 2.3937 0.24375 5.8562 0.24375 5.8562s-3.5906-4.075-9.3969-2.1969c-3.1281 1.0125-7.0906 2.4875-10.25 4.5156-3.9781 2.5531-5.7344 5.9375-5.7344 5.9375s1.9531 8.2969 1.9531 8.2969l-7.8094 0.24375zm60.4-18.506s-1.9625-3.5187-7.9312-3.2937c-2.1312 0.08125-7.9219-1.0344-10.494-0.24375-3.8312 1.1781-4.1844 4.3937-4.15 4.3937 0.059375 0-1.9969-2.6937-2.8062-5.6125-0.86562-3.1156-0.4875-6.4656-0.4875-6.4656s7.6531-2.6875 14.644-1.8312c6.4062 0.7875 12.203 5.125 12.203 5.125l3.5375 2.4406s-0.225 2.0344 0.24375 3.7812c0.37188 1.3812 1.3437 2.8062 1.3437 2.8062s-3.6594 7.3219-3.6594 7.3219l-0.975-4.6375s-1.4656-3.7812-1.4656-3.7812zm-38.316 18.181 8.7844-6.7125 2.1969 5.2469s1.0562 1.5812 0.4875 3.4156c-0.7 2.2687 0.71875 3.9875 1.425 4.5562 0.70625 0.56875 2.4187 1.0562 4.3656 0.54375 2.4-0.63437 4.3656-2.1969 4.6625-2.9844 0.3-0.7875 0.015625-3.05-1.425-4.4344-0.51875-0.49687-1.6687-1.425-1.9531-2.5625-0.625-2.4969 0-5.7344 0-5.7344s14.441 4.0281 14.441 4.0281-2.3312 1.0844-3.3906 1.7344c-1.0562 0.65-4.0125 5.2344-5.5844 6.6719s-4.0437 3.1781-6.8344 3.7406c-2.9719 0.6-7.9187-0.51562-10.441-1.4656-2.5219-0.95-9.8437-3.7687-9.8437-3.7687l3.1062-2.2781zm-16.959-41.65c-2.8375-1.0281-5.5437-1.0969-5.5344-1.0562 0 0 2.7219-1.1969 5.125-0.325 3.1156 1.1281 6.1 5.125 6.1 5.125-0.0125-0.046875-2.9219-2.7375-5.6937-3.7406zm46.45-7.6469c-2.7594 1.8094-5.8562 6.1-5.8562 6.1s2.5281-5.6031 5.3687-7.4031c2.0187-1.2812 4.5562 0.89375 4.5562 0.89375s-1.9531-0.98125-4.0687 0.40625zm-27.803 36.362c-0.67187 0.30625-1.4437-0.225-1.7094-0.60937-0.26562-0.3875-0.28438-1.5875 0.52812-1.9937 0.8125-0.40625 1.6469 0.040625 1.85 0.7125s0 1.5875-0.67187 1.8906zm20.762-2.8062c-0.79375 0.24375-1.4031 0.08125-1.7687-0.8125-0.36562-0.89375 0-1.7906 0.75312-2.075 0.75312-0.28437 1.425 0.24375 1.6469 0.975 0.225 0.73125 0.1625 1.6687-0.63125 1.9125z" stroke="#000" stroke-width=".081348"/>
</svg>
